<svg width="121" height="69" viewBox="0 0 121 69" fill="none" xmlns="http://www.w3.org/2000/svg">
<g clip-path="url(#clip0_1_2119)">
<path opacity="0.5" d="M107.253 44.7308C107.165 45.2193 107.076 45.7129 106.983 46.2014H60.7766C60.6623 45.6817 60.5479 45.1621 60.4388 44.6425C58.0849 33.6781 57.082 26.4084 61.4469 22.7449C64.6895 20.0116 70.3275 19.7674 74.2872 21.134C79.416 22.906 80.1123 26.7877 83.9213 26.7565C87.7302 26.7253 88.1044 22.9787 93.5502 21.134C96.7823 20.0428 101.667 19.7986 104.79 21.9395C110.033 25.525 109.02 34.9512 107.253 44.7308Z" fill="#FFE5B3"/>
<path opacity="0.5" d="M106.989 47.2407H12.9347C7.1949 47.2407 2.5419 51.8937 2.5419 57.6335C2.5419 63.3732 7.1949 68.0262 12.9347 68.0262H106.989C112.729 68.0262 117.382 63.3732 117.382 57.6335C117.382 51.8937 112.729 47.2407 106.989 47.2407Z" fill="#FFF9F4"/>
<path opacity="0.5" d="M104.391 40.4856H18.6507C12.9109 40.4856 8.25792 45.1386 8.25792 50.8784C8.25792 56.6181 12.9109 61.2711 18.6507 61.2711H104.391C110.131 61.2711 114.784 56.6181 114.784 50.8784C114.784 45.1386 110.131 40.4856 104.391 40.4856Z" fill="#FFE5B3"/>
<path opacity="0.5" d="M54.2505 45.2506C54.1622 45.739 54.0738 46.2327 53.9803 46.7211H7.77409C7.65977 46.2015 7.54545 45.6819 7.43633 45.1622C5.09796 34.1979 4.09506 26.9281 8.46002 23.2647C11.7026 20.5314 17.3406 20.2872 21.3003 21.6538C26.4291 23.4258 27.1254 27.3075 30.9344 27.2763C34.7433 27.2451 35.1174 23.4985 40.5633 21.6538C43.7954 20.5626 48.68 20.3183 51.803 22.4592C57.0306 26.0447 56.0173 35.471 54.2505 45.2506Z" fill="#FFE5B3"/>
<path d="M57.5168 45.9417C57.3921 46.6328 57.2674 47.3239 57.1375 48.0202H10.9312C10.7754 47.3135 10.6299 46.6276 10.4844 45.9417C8.22393 35.2891 7.31976 28.17 11.6172 24.5638C14.8597 21.8305 20.4978 21.5862 24.4574 22.9529C29.5863 24.7248 30.2826 28.6065 34.0915 28.5754C37.9005 28.5442 38.2746 24.7976 43.7204 22.9529C46.9526 21.8616 51.8372 21.6174 54.9602 23.7583C60.0786 27.2711 59.2108 36.3803 57.5168 45.9417Z" stroke="#4D2C19" stroke-width="3" stroke-miterlimit="10"/>
<path d="M111.891 45.0301C111.803 45.5186 111.715 46.0122 111.621 46.5007H65.4148C65.3005 45.981 65.1862 45.4614 65.0771 44.9418C62.7231 33.9774 61.7202 26.7077 66.0852 23.0442C69.3277 20.3109 74.9658 20.0667 78.9254 21.4333C84.0543 23.2053 84.7506 27.087 88.5595 27.0558C92.3685 27.0247 92.7426 23.2781 98.1884 21.4333C101.421 20.3421 106.305 20.0979 109.428 22.2388C114.671 25.8243 113.658 35.2505 111.891 45.0301Z" stroke="#4D2C19" stroke-width="3" stroke-miterlimit="10"/>
<path d="M119.2 55.555C119.199 58.1041 118.185 60.5485 116.383 62.3511C114.58 64.1536 112.136 65.1669 109.587 65.1683H12.1599C6.84917 65.1683 2.3439 60.9748 2.28674 55.6641C2.25878 53.1679 3.20293 50.7587 4.91946 48.9461C6.636 47.1336 8.9903 46.0598 11.4843 45.952C11.6246 46.6172 11.7701 47.2927 11.9208 47.989H58.0803L58.4544 45.9417H63.999C64.0405 46.1443 64.1185 46.4977 64.16 46.6951C64.2016 46.8926 64.2744 47.2148 64.3263 47.4694H110.486C110.574 46.9913 110.662 46.5081 110.746 46.0352C113.073 46.3178 115.218 47.4415 116.775 49.1948C118.332 50.9481 119.194 53.2101 119.2 55.555Z" stroke="#4D2C19" stroke-width="3" stroke-miterlimit="10" stroke-linecap="round"/>
<path d="M32.5205 28.092C36.4468 31.0109 41.2848 32.4351 46.1662 32.1088" stroke="#4D2C19" stroke-width="3" stroke-miterlimit="10" stroke-linecap="round"/>
<path d="M83.9647 26.5332C87.891 29.4521 92.7289 30.8762 97.6104 30.55" stroke="#4D2C19" stroke-width="3" stroke-miterlimit="10" stroke-linecap="round"/>
</g>
<defs>
<clipPath id="clip0_1_2119">
<rect width="120" height="67.5529" fill="white" transform="translate(0.5 0.473633)"/>
</clipPath>
</defs>
</svg>
