<svg width="36" height="39" viewBox="0 0 36 39" fill="none" xmlns="http://www.w3.org/2000/svg">
<path opacity="0.5" d="M34.4968 27.5776V36.9711C34.4968 37.5092 34.283 38.0253 33.9025 38.4058C33.522 38.7863 33.0059 39.0001 32.4678 39.0001H2.46181C2.1951 39.0005 1.93092 38.9483 1.68439 38.8466C1.43786 38.7448 1.21382 38.5954 1.02508 38.4069C0.836334 38.2185 0.686593 37.9946 0.58443 37.7483C0.482268 37.5019 0.429687 37.2378 0.429688 36.9711V27.5776C0.429688 27.0387 0.643787 26.5218 1.02488 26.1407C1.40598 25.7596 1.92286 25.5455 2.46181 25.5455H10.0987C10.1929 25.5999 10.2713 25.6778 10.3262 25.7717C10.3811 25.8656 10.4106 25.9721 10.4118 26.0809V32.7472C10.4118 32.9083 10.4758 33.0628 10.5898 33.1767C10.7037 33.2906 10.8582 33.3546 11.0193 33.3546H23.1275C23.2089 33.3571 23.2899 33.3433 23.3658 33.3139C23.4416 33.2845 23.5108 33.2401 23.5692 33.1835C23.6277 33.1268 23.6741 33.059 23.7058 32.9841C23.7375 32.9091 23.7538 32.8285 23.7537 32.7472V26.0966C23.7549 25.9878 23.7845 25.8812 23.8394 25.7874C23.8943 25.6935 23.9727 25.6155 24.0669 25.5612H32.4803C33.0138 25.5653 33.5244 25.779 33.9016 26.1563C34.2789 26.5336 34.4927 27.0441 34.4968 27.5776Z" fill="white"/>
<path d="M34.7647 27.5776V36.9711C34.7639 37.5095 34.5494 38.0256 34.1684 38.406C33.7874 38.7864 33.271 39.0001 32.7326 39.0001H2.7235C2.18509 39.0001 1.66867 38.7864 1.28766 38.406C0.906654 38.0256 0.692205 37.5095 0.691376 36.9711V27.5776C0.692204 27.0389 0.906553 26.5225 1.28747 26.1416C1.66839 25.7607 2.1848 25.5463 2.7235 25.5455H10.3604C10.4546 25.5999 10.533 25.6778 10.5879 25.7717C10.6428 25.8656 10.6723 25.9721 10.6735 26.0809V32.7472C10.6735 32.9083 10.7375 33.0628 10.8514 33.1767C10.9654 33.2906 11.1199 33.3546 11.281 33.3546H23.3892C23.5503 33.3546 23.7048 33.2906 23.8187 33.1767C23.9326 33.0628 23.9967 32.9083 23.9967 32.7472V26.0966C23.9979 25.9878 24.0273 25.8812 24.0823 25.7874C24.1372 25.6935 24.2156 25.6155 24.3098 25.5612H32.7232C33.2608 25.5595 33.7773 25.7706 34.1598 26.1484C34.5423 26.5262 34.7598 27.04 34.7647 27.5776Z" fill="white"/>
<path d="M35.027 25.7308V35.1243C35.0274 35.3913 34.9752 35.6558 34.8732 35.9025C34.7712 36.1492 34.6215 36.3734 34.4327 36.5622C34.244 36.751 34.0198 36.9006 33.773 37.0026C33.5263 37.1046 33.2619 37.1569 32.9949 37.1565H2.98578C2.71906 37.1565 2.45498 37.1039 2.20861 37.0017C1.96223 36.8996 1.73841 36.7498 1.54996 36.5611C1.36151 36.3723 1.21211 36.1483 1.11033 35.9018C1.00855 35.6553 0.956378 35.3911 0.95679 35.1243V25.7308C0.956378 25.4641 1.00855 25.2 1.11033 24.9534C1.21211 24.7069 1.36151 24.4829 1.54996 24.2941C1.73841 24.1054 1.96223 23.9556 2.20861 23.8535C2.45498 23.7513 2.71906 23.6987 2.98578 23.6987H10.6258C10.7208 23.7514 10.8 23.8285 10.8551 23.9221C10.9102 24.0158 10.9391 24.1224 10.939 24.231V30.8691C10.9364 30.9502 10.9502 31.0309 10.9794 31.1066C11.0086 31.1823 11.0527 31.2513 11.109 31.3097C11.1653 31.3681 11.2328 31.4146 11.3074 31.4464C11.3819 31.4783 11.4622 31.495 11.5433 31.4953H23.6609C23.822 31.4953 23.9765 31.4313 24.0904 31.3174C24.2043 31.2035 24.2683 31.049 24.2683 30.8879V24.231C24.2682 24.1224 24.2971 24.0158 24.3522 23.9221C24.4073 23.8285 24.4864 23.7514 24.5815 23.6987H32.9918C33.259 23.6979 33.5238 23.7499 33.7709 23.8517C34.018 23.9535 34.2425 24.1031 34.4316 24.2919C34.6207 24.4807 34.7707 24.7051 34.8729 24.952C34.975 25.1989 35.0274 25.4636 35.027 25.7308Z" stroke="#4D2C19" stroke-width="1.56558" stroke-miterlimit="10"/>
<path d="M30.6583 9.1917V21.303C30.6587 21.3825 30.6433 21.4613 30.6131 21.5348C30.5829 21.6083 30.5384 21.6751 30.4822 21.7313C30.426 21.7875 30.3592 21.832 30.2857 21.8622C30.2122 21.8924 30.1334 21.9078 30.054 21.9074H23.4002C23.3206 21.9074 23.2418 21.9231 23.1682 21.9536C23.0947 21.9842 23.028 22.029 22.9718 22.0855C22.9156 22.1419 22.8712 22.2089 22.841 22.2826C22.8108 22.3563 22.7955 22.4352 22.7959 22.5148V29.1654C22.7959 29.3265 22.7319 29.481 22.618 29.5949C22.5041 29.7088 22.3496 29.7728 22.1885 29.7728H10.0771C9.99734 29.7728 9.91834 29.7571 9.84465 29.7266C9.77095 29.6961 9.704 29.6513 9.64759 29.5949C9.59118 29.5385 9.54642 29.4715 9.5159 29.3978C9.48537 29.3241 9.46967 29.2452 9.46967 29.1654V22.5148C9.47008 22.4352 9.45475 22.3563 9.42456 22.2826C9.39438 22.2089 9.34992 22.1419 9.29377 22.0855C9.23761 22.029 9.17087 21.9842 9.09734 21.9536C9.02382 21.9231 8.94498 21.9074 8.86535 21.9074H2.21162C2.13215 21.9078 2.05337 21.8924 1.97986 21.8622C1.90635 21.832 1.83958 21.7875 1.78338 21.7313C1.72718 21.6751 1.68267 21.6083 1.65245 21.5348C1.62223 21.4613 1.60689 21.3825 1.60731 21.303V9.1917C1.6069 9.11208 1.62223 9.03314 1.65241 8.95946C1.6826 8.88578 1.72703 8.8188 1.78319 8.76235C1.83934 8.7059 1.90611 8.66113 1.97963 8.63056C2.05315 8.59999 2.132 8.58423 2.21162 8.58423H8.86535C8.94498 8.58424 9.02382 8.56851 9.09734 8.53795C9.17087 8.50738 9.23761 8.46261 9.29377 8.40616C9.34992 8.34971 9.39438 8.28269 9.42456 8.20901C9.45475 8.13533 9.47008 8.05643 9.46967 7.97681V1.32622C9.46967 1.24644 9.48537 1.16745 9.5159 1.09375C9.54642 1.02005 9.59118 0.953081 9.64759 0.896674C9.704 0.840268 9.77095 0.795526 9.84465 0.764999C9.91834 0.734472 9.99734 0.71875 10.0771 0.71875H22.1885C22.3496 0.71875 22.5041 0.782756 22.618 0.896674C22.7319 1.01059 22.7959 1.16511 22.7959 1.32622V7.97681C22.7955 8.05643 22.8108 8.13533 22.841 8.20901C22.8712 8.28269 22.9156 8.34971 22.9718 8.40616C23.028 8.46261 23.0947 8.50738 23.1682 8.53795C23.2418 8.56851 23.3206 8.58424 23.4002 8.58423H30.054C30.1336 8.58423 30.2124 8.59999 30.2859 8.63056C30.3595 8.66113 30.4262 8.7059 30.4824 8.76235C30.5385 8.8188 30.583 8.88578 30.6132 8.95946C30.6434 9.03314 30.6587 9.11208 30.6583 9.1917Z" fill="white"/>
<path d="M32.1337 10.9073V23.0187C32.1329 23.1792 32.0685 23.3329 31.9547 23.4461C31.8409 23.5594 31.6868 23.623 31.5263 23.623H24.8757C24.7148 23.6238 24.5608 23.6881 24.447 23.8018C24.3333 23.9155 24.269 24.0696 24.2682 24.2304V30.8685C24.2682 30.9482 24.2525 31.0272 24.222 31.1009C24.1914 31.1746 24.1467 31.2416 24.0903 31.298C24.0339 31.3544 23.9669 31.3992 23.8932 31.4297C23.8195 31.4602 23.7405 31.4759 23.6608 31.4759H11.5431C11.4634 31.4759 11.3844 31.4602 11.3107 31.4297C11.237 31.3992 11.17 31.3544 11.1136 31.298C11.0572 31.2416 11.0125 31.1746 10.9819 31.1009C10.9514 31.0272 10.9357 30.9482 10.9357 30.8685V24.2304C10.9359 24.1218 10.9069 24.0151 10.8518 23.9215C10.7968 23.8279 10.7176 23.7507 10.6226 23.6981C10.5331 23.6498 10.4331 23.624 10.3314 23.623H3.68392C3.52336 23.623 3.36932 23.5594 3.25549 23.4461C3.14166 23.3329 3.0773 23.1792 3.07648 23.0187V10.9073C3.07648 10.8277 3.0922 10.7489 3.12276 10.6753C3.15333 10.6018 3.19813 10.535 3.25457 10.4789C3.31102 10.4227 3.37801 10.3783 3.45169 10.3481C3.52537 10.3179 3.6043 10.3026 3.68392 10.303H10.3345C10.4143 10.303 10.4933 10.2873 10.567 10.2568C10.6407 10.2262 10.7076 10.1815 10.764 10.1251C10.8204 10.0687 10.8652 10.0017 10.8957 9.92801C10.9262 9.85431 10.942 9.77531 10.942 9.69554V3.04182C10.9428 2.88125 11.0072 2.72754 11.121 2.6143C11.2348 2.50106 11.3889 2.43748 11.5494 2.43748H23.6608C23.8213 2.43748 23.9754 2.50106 24.0892 2.6143C24.203 2.72754 24.2674 2.88125 24.2682 3.04182V9.69554C24.2682 9.77531 24.2839 9.85431 24.3144 9.92801C24.345 10.0017 24.3897 10.0687 24.4461 10.1251C24.5025 10.1815 24.5695 10.2262 24.6432 10.2568C24.7169 10.2873 24.7959 10.303 24.8757 10.303H31.5263C31.6059 10.3026 31.6848 10.3179 31.7585 10.3481C31.8322 10.3783 31.8991 10.4227 31.9556 10.4789C32.012 10.535 32.0568 10.6018 32.0874 10.6753C32.118 10.7489 32.1337 10.8277 32.1337 10.9073Z" stroke="#4D2C19" stroke-width="1.56558" stroke-miterlimit="10"/>
</svg>
