<svg width="102" height="83" viewBox="0 0 102 83" fill="none" xmlns="http://www.w3.org/2000/svg">
<path opacity="0.5" d="M95.7962 35.8164C95.4625 37.0299 94.8148 39.3837 94.172 41.7279C93.9911 42.3412 93.7614 42.9393 93.485 43.5164C92.2435 46.2115 92.0473 49.0575 91.9393 51.9378C91.797 55.9194 91.267 59.8571 89.7017 63.634C89.3712 64.4153 88.9566 65.1587 88.4652 65.8515C86.3061 68.8681 82.0861 68.9948 79.878 65.9928C78.9978 64.6726 78.3182 63.2308 77.8612 61.7139C77.1644 59.6865 76.7179 57.5812 76.0996 55.5295C75.8881 54.8483 75.5809 54.2003 75.1869 53.6045C73.9798 51.7477 71.4919 51.543 70.1769 53.3364C69.2989 54.6563 68.5994 56.0851 68.0963 57.5861C67.1444 60.0618 66.3592 62.596 65.4465 65.0863C65.2027 65.65 64.8605 66.1664 64.4357 66.6117C64.029 67.1068 63.519 67.5083 62.941 67.7888C62.363 68.0693 61.7306 68.2219 61.0874 68.2363C60.4442 68.2507 59.8056 68.1264 59.2154 67.872C58.6253 67.6176 58.0977 67.2392 57.669 66.7628C56.1141 65.0774 55.0905 62.9765 54.7248 60.7197C54.0776 57.4478 53.6221 54.1412 53.3607 50.8169C53.2078 48.4173 52.7258 46.0496 51.9278 43.7796C50.9759 41.0992 49.965 38.3798 49.5676 35.6019C48.9002 30.8113 51.2997 27.1221 55.5148 24.4661C57.8996 22.9602 60.5935 23.1454 63.2531 23.8423C64.6074 24.1932 65.9618 24.5685 67.2817 25.0119C70.6162 26.159 74.2389 26.1796 77.5864 25.0704C79.2548 24.5441 80.9624 24.0957 82.6749 23.6961C84.1751 23.3164 85.7459 23.3061 87.2509 23.6662C88.756 24.0263 90.1498 24.7459 91.3112 25.7625C94.2652 28.1992 95.8109 31.1866 95.7962 35.8164Z" fill="#FFE5B3"/>
<path d="M100.251 33.8427C99.9169 35.1488 99.2692 37.6781 98.6264 40.1782C98.4479 40.8445 98.2182 41.4962 97.9394 42.1276C96.6979 45.0516 96.5017 48.0878 96.3937 51.1922C96.2514 55.4711 95.7215 59.711 94.1561 63.7462C93.829 64.5813 93.4145 65.3801 92.9196 66.1293C90.7605 69.3799 86.5405 69.5115 84.3324 66.2853C83.4459 64.8517 82.767 63.3014 82.3156 61.6799C81.6188 59.4965 81.1723 57.2353 80.554 55.0227C80.3437 54.2998 80.0367 53.6081 79.6413 52.9661C78.4342 50.968 75.9463 50.7487 74.6313 52.6786C73.749 54.1105 73.0501 55.6461 72.5507 57.2499C71.5988 59.94 70.8136 62.6399 69.9255 65.3008C69.6861 65.9019 69.3441 66.4575 68.9146 66.9432C67.0893 69.2142 64.0813 69.2922 62.1479 67.1089C60.575 65.2571 59.5552 63.0051 59.2037 60.6077C58.5562 57.0836 58.1008 53.5273 57.8396 49.9543C57.6764 47.383 57.1833 44.8429 56.3724 42.3956C55.4205 39.5105 54.4096 36.5816 54.0122 33.5942C53.3448 28.4429 55.7443 24.4711 59.9594 21.6152C62.3442 19.9777 65.0185 20.197 67.6977 20.9524C69.052 21.3326 70.4064 21.7322 71.7263 22.2098C75.0446 23.4459 78.6976 23.4684 82.031 22.2731C83.6994 21.7078 85.407 21.2205 87.1195 20.8111C90.3876 20.0021 93.2483 20.8111 95.7558 23.0334C98.7196 25.6456 100.265 28.8523 100.251 33.8427Z" stroke="#4D2C19" stroke-width="3.50949" stroke-miterlimit="10" stroke-linecap="round"/>
<path opacity="0.5" d="M46.5726 36.9488C46.2943 38.1843 45.7723 40.5678 45.2126 42.9449C45.0559 43.5672 44.8508 44.1767 44.5993 44.7678C43.4775 47.5257 43.404 50.3819 43.4223 53.2694C43.4574 57.2558 43.0963 61.2234 41.6936 65.0551C41.3992 65.8533 41.0174 66.6173 40.5553 67.333C38.5349 70.4578 34.324 70.7899 32.0005 67.894C31.0651 66.6175 30.326 65.2084 29.8075 63.7129C29.0213 61.7132 28.4829 59.6325 27.7787 57.608C27.5381 56.9409 27.2035 56.3118 26.7849 55.7395C25.5032 53.9415 23.0113 53.8552 21.7788 55.7148C20.9593 57.0766 20.3235 58.5392 19.8877 60.0648C19.0445 62.5888 18.3709 65.1611 17.5678 67.6957C17.3495 68.2726 17.0309 68.8071 16.6265 69.2745C16.2422 69.7878 15.7515 70.2126 15.1881 70.52C14.6246 70.8273 14.0018 71.0098 13.3624 71.0549C12.7231 71.1 12.0823 71.0067 11.4841 70.7813C10.886 70.556 10.3447 70.2039 9.89739 69.7494C8.27069 68.1379 7.1545 66.0852 6.68588 63.8434C5.90189 60.6013 5.30481 57.3161 4.89758 54.0038C4.63407 51.6143 4.04513 49.2736 3.14701 47.0461C2.07854 44.4104 0.941972 41.7352 0.437184 38.9766C-0.408426 34.2145 1.82246 30.3942 5.9104 27.5331C8.22113 25.912 10.9153 25.966 13.5994 26.5322C14.9657 26.8182 16.3332 27.126 17.6699 27.5079C21.0425 28.4919 24.6535 28.336 27.9414 27.0643C29.5835 26.4539 31.2524 25.9293 32.9542 25.442C34.4342 24.9888 36.0007 24.9022 37.5175 25.1896C39.0344 25.477 40.4556 26.1298 41.6576 27.0912C44.7288 29.3978 46.401 32.304 46.5726 36.9488Z" fill="#FFE5B3" fill-opacity="0.898039"/>
<path d="M50.6787 33.8522C50.4054 35.1749 49.8849 37.7376 49.3352 40.2891C49.1817 40.9575 48.9794 41.614 48.7299 42.2536C47.609 45.2192 47.5541 48.2841 47.583 51.3962C47.6222 55.6841 47.2805 59.95 45.8897 64.0675C45.6021 64.9187 45.2237 65.7372 44.7608 66.5088C42.7364 69.8722 38.539 70.2079 36.2066 67.0807C35.2569 65.6939 34.5128 64.1772 33.9973 62.5769C33.2024 60.4248 32.657 58.1848 31.9459 56.0011C31.7074 55.2875 31.3718 54.6103 30.9483 53.9885C29.6585 52.049 27.1677 51.9451 25.9409 53.942C25.1204 55.4167 24.4891 56.9875 24.0619 58.6172C23.2348 61.3457 22.5669 64.0948 21.7701 66.817C21.5521 67.4243 21.2311 67.9904 20.8211 68.4904C19.0948 70.8489 16.0857 71.0837 14.0854 69.0028C12.4361 67.2245 11.3188 65.0209 10.8586 62.6386C10.0614 59.1457 9.45449 55.6113 9.04061 52.0508C8.78023 49.4823 8.1902 46.9596 7.28496 44.5446C6.21133 41.7036 5.06534 38.8256 4.53777 35.8607C3.65213 30.7446 5.87167 26.6495 9.95019 23.5857C12.2607 21.8465 14.9538 21.918 17.6336 22.5261C19.0091 22.8575 20.3804 23.1912 21.7049 23.5914C25.0664 24.6626 28.7074 24.5069 31.9789 23.152C33.6209 22.5023 35.2982 21.9334 36.9902 21.4292C40.2139 20.4571 43.1035 21.1242 45.6999 23.2267C48.7976 25.7263 50.4762 28.8595 50.6787 33.8522Z" stroke="#4D2C19" stroke-width="3.50949" stroke-miterlimit="10" stroke-linecap="round"/>
</svg>
