<svg width="55" height="77" viewBox="0 0 55 77" fill="none" xmlns="http://www.w3.org/2000/svg">
<path opacity="0.5" d="M9.91759 43.078H44.5799C45.9634 43.078 15.7359 42.3937 15.3935 43.078C14.3804 45.1044 43.3702 48.8199 42.9026 51.5792C41.9024 57.4502 42.4133 60.5247 39.1051 66.897C37.6654 69.668 35.9038 70.4168 34.7017 70.2846C33.5017 70.1587 38.5337 71.1393 38.5337 69.3001L41.7824 62.4254L42.3528 55.5508C42.3528 53.6523 44.2849 50.9617 43.4025 49.7338C42.5179 48.5122 33.0535 45.6431 31.3384 45.6431C29.6211 45.6431 25.8776 44.4204 24.9941 45.6431C24.1117 46.872 21.9656 59.3962 21.9656 61.2947L21.333 66.897C21.333 68.7362 24.6257 57.0114 23.4214 57.1372C22.2237 57.2695 26.4284 48.4141 24.9941 45.6431C21.6805 39.2708 25.3148 51.903 24.3201 46.0321C23.8513 43.2727 30.5586 45.0864 29.5066 43.078C28.8229 41.7718 9.00602 43.078 9.91759 43.078ZM21.9656 40.8812L36.9939 41.4323C37.7877 41.4323 40.004 41.2842 40.2341 41.4323C40.4598 41.5814 38.3868 36.3207 38.5337 36.7501L39.9324 40.8812H14.5694L17.0128 40.9035C17.9273 41.1458 18.9418 41.5814 19.1729 41.4323C19.403 41.2842 21.1718 40.8812 21.9656 40.8812ZM17.9273 33.5C16.8645 33.5 15.9648 33.6861 15.2444 34.1536C14.524 34.6222 14.0855 35.3392 13.8382 36.0605L12.2062 40.8812H9.91759C8.58371 40.8812 7.37945 41.6036 6.95823 42.6877C6.54241 43.7792 6.78434 44.9849 7.43129 46.1314C8.44439 47.9325 8.93905 49.3265 9.38296 51.9431C10.341 57.5612 9.90787 61.1794 13.3954 67.9007C15.1105 71.2005 17.6875 72.7267 20.0442 72.4729C22.402 72.2201 24.2068 70.1143 24.2068 67.4004V61.2957C24.2068 59.649 24.5221 58.493 24.9941 57.8362C25.4672 57.1805 26.0591 56.8685 27.2514 56.8685C28.4492 56.8685 29.0335 57.1805 29.5066 57.8362C29.9786 58.493 30.2994 59.649 30.2994 61.2957V67.4004C30.2994 70.1143 32.0998 72.2211 34.4576 72.4729C36.8197 72.7267 39.3956 71.2005 41.1064 67.9007C44.6004 61.1794 44.1662 57.5612 45.1167 51.9431C45.5617 49.3254 46.0553 47.9325 47.0737 46.1314C47.7218 44.9849 47.9637 43.7792 47.5425 42.6877C47.1202 41.6036 45.9224 40.8812 44.5831 40.8812H42.2988L40.6614 36.0605C40.4184 35.3392 39.9702 34.6222 39.2498 34.1536C38.5294 33.6861 37.6351 33.5 36.5713 33.5H17.9273Z" fill="#FFE5B3"/>
<path d="M10.0215 42.8415H48.5267C50.0637 42.8415 49.4878 44.3233 49.1075 45.0995C47.982 47.3983 47.183 49.3552 46.6635 52.4855C45.5524 59.1456 46.1199 62.6335 42.4449 69.8623C40.8456 73.0058 38.8887 73.8552 37.5533 73.7052C36.2204 73.5625 35.1477 72.5186 35.1477 70.4322V63.5069C35.1477 61.3533 34.7974 59.5392 33.8172 58.1462C32.8345 56.7604 31.1788 55.9829 29.2735 55.9829C27.3658 55.9829 25.7113 56.7592 24.7298 58.1462C23.7496 59.5404 23.4053 61.3533 23.4053 63.5069V70.4322C23.4053 72.5186 22.3302 73.5625 20.9925 73.7052C19.6619 73.8552 17.6978 73.0058 16.1045 69.8623C12.4235 62.6335 12.9934 59.1456 11.8883 52.4855C11.3676 49.3552 10.613 47.378 9.44435 45.0995C8.68487 43.6178 9.00882 42.8415 10.0215 42.8415ZM18.9192 34.4753H39.6278C40.5097 34.4753 40.9788 34.6324 41.2343 34.8004C41.4851 34.9696 41.6471 35.176 41.8103 35.6631L43.364 40.3495H15.189L16.7464 35.6631C16.9011 35.176 17.0643 34.9696 17.3211 34.8004C17.5766 34.6324 18.0373 34.4753 18.9192 34.4753ZM18.9192 31.9761C17.7386 31.9761 16.7392 32.1872 15.9389 32.7176C15.1386 33.2491 14.6515 34.0625 14.3767 34.8808L12.5638 40.3495H10.0215C8.5397 40.3495 7.20192 41.169 6.73399 42.3988C6.27207 43.637 6.54082 45.0047 7.25951 46.3053C8.38492 48.3486 8.93443 49.9299 9.42755 52.8982C10.4918 59.2716 10.0107 63.3761 13.8848 71.0009C15.7901 74.7443 18.6528 76.4756 21.2708 76.1876C23.89 75.9009 25.8949 73.5121 25.8949 70.4334V63.5081C25.8949 61.64 26.2452 60.3286 26.7695 59.5836C27.295 58.8397 27.9525 58.4857 29.2771 58.4857C30.6077 58.4857 31.2568 58.8397 31.7823 59.5836C32.3066 60.3286 32.6629 61.64 32.6629 63.5081V70.4334C32.6629 73.5121 34.663 75.9021 37.2822 76.1876C39.9062 76.4756 42.7677 74.7443 44.6682 71.0009C48.5495 63.3761 48.0672 59.2716 49.1231 52.8982C49.6174 49.9287 50.1657 48.3486 51.2971 46.3053C52.017 45.0047 52.2857 43.637 51.8178 42.3988C51.3487 41.169 50.0181 40.3495 48.5304 40.3495H45.9928L44.1739 34.8808C43.9039 34.0625 43.406 33.2491 42.6057 32.7176C41.8055 32.1872 40.812 31.9761 39.6302 31.9761H18.9192Z" fill="#4D2C19"/>
<path opacity="0.5" d="M11.7738 25.3034C14.9898 25.3034 20.0813 24.6066 22.2959 25.9375C25.9261 28.1066 33.057 25.5178 35.668 25.9375C37.1034 26.1521 48.3836 25.1104 46.9503 24.8958C45.4137 24.6654 49.6423 16.51 48.5052 16.0417C49.7727 15.7119 30.8899 6.31395 31.7651 5.98414C31.7651 8.75 33.6941 12.9167 36.2029 12.9167C39.6047 12.9167 38.1925 12.0526 39.9471 15.5208C41.7027 18.9891 47.556 18.3686 46.3657 22.8125C46.0236 24.0947 45.4242 25.3034 43.3472 25.3034L9.99362 24.8958C7.91252 24.8958 6.89724 24.2294 6.55508 22.9471C5.36588 18.5021 6.42494 24.8958 6.78431 24.8958C7.14369 24.8958 8.36787 25.3034 11.7738 25.3034ZM15.6723 2.5C11.3254 2.5 7.78809 5.39008 5.7675 9.38161C3.7469 13.3784 3.12101 18.5434 4.45729 23.5254C5.06649 25.7981 7.27903 27.5 10.1571 27.5H43.3472C46.2232 27.5 48.4337 25.7991 49.0418 23.5254C50.3781 18.5434 49.7595 13.3784 47.7337 9.38161C45.7121 5.39008 42.1758 2.5 37.8331 2.5C34.9874 2.5 32.9157 3.19874 31.0036 3.93023C29.25 4.59725 27.5163 5.21988 25.2933 5.5666C24.9574 5.37315 24.4557 5.29598 24.1198 5.09937C21.8342 3.79388 19.3661 2.5 15.6723 2.5Z" fill="#FFE5B3"/>
<path d="M16.2749 3.3089C19.8819 3.3089 22.0709 4.4461 24.5547 5.97901C28.6262 8.47744 31.3756 9.42836 34.304 9.91173C35.9139 10.1589 36.266 7.65316 34.6585 7.40599C32.9351 7.14056 31.5581 6.76556 30.2829 6.22618C31.7043 5.8463 33.3423 5.1742 34.3239 4.79433C36.4146 3.97004 38.3158 3.3089 41.1295 3.3089C44.9448 3.3089 48.1013 5.867 50.0692 9.86181C52.0382 13.8566 52.6899 19.2139 51.355 24.3325C50.9712 25.8094 49.6433 27.0464 47.3139 27.0464H10.0894C7.75529 27.0464 6.43324 25.8094 6.04949 24.3325C4.71574 19.2127 5.36741 13.8566 7.33411 9.86181C9.30315 5.867 12.455 3.3089 16.2749 3.3089ZM16.2749 0.78125C11.3997 0.78125 7.43239 4.11006 5.16618 8.70756C2.89996 13.3112 2.19799 19.2602 3.69671 24.9985C4.37996 27.6163 6.86145 29.5765 10.0894 29.5765H47.3139C50.5395 29.5765 53.0187 27.6175 53.7007 24.9985C55.1995 19.2602 54.5057 13.3112 52.2336 8.70756C49.9662 4.11006 46.0001 0.78125 41.1295 0.78125C37.9379 0.78125 35.6144 1.58606 33.4698 2.42861C31.5031 3.19689 29.5586 3.91403 27.0655 4.31339C26.6887 4.09058 26.126 4.00169 25.7493 3.77523C23.1859 2.27154 20.4178 0.78125 16.2749 0.78125Z" fill="#4D2C19"/>
</svg>
