<svg width="100" height="99" viewBox="0 0 100 99" fill="none" xmlns="http://www.w3.org/2000/svg">
<path d="M98.5365 39.8065H94.5493V39.6011H49.9996V59.4007H77.9744C73.8931 70.9266 62.9265 79.2004 49.9996 79.2004C33.5979 79.2004 20.2999 65.9025 20.2999 49.5009C20.2999 33.0993 33.5979 19.8014 49.9996 19.8014C57.5706 19.8014 64.4585 22.6575 69.703 27.3228L83.704 13.3219C74.8633 5.0828 63.0379 0.00170898 49.9996 0.00170898C22.6635 0.00170898 0.5 22.165 0.5 49.5009C0.5 76.8368 22.6635 99.0001 49.9996 99.0001C77.3358 99.0001 99.4993 76.8368 99.4993 49.5009C99.4993 46.182 99.1577 42.9423 98.5365 39.8065Z" fill="#FFC107"/>
<path d="M6.19867 26.4598L22.4618 38.3866C26.8623 27.4919 37.5196 19.7997 49.991 19.7997C57.562 19.7997 64.4499 22.6558 69.6943 27.3211L83.6953 13.3202C74.8547 5.08109 63.0292 0 49.991 0C30.9782 0 14.4899 10.7339 6.19867 26.4598Z" fill="#FF3D00"/>
<path d="M49.9898 98.9997C62.7756 98.9997 74.3932 94.1067 83.1769 86.1497L67.8567 73.1858C62.887 76.9502 56.7094 79.2 49.9898 79.2C37.115 79.2 26.183 70.9905 22.0646 59.5339L5.92275 71.9706C14.1149 88.0009 30.7518 98.9997 49.9898 98.9997Z" fill="#4CAF50"/>
<path d="M98.5369 39.8036H94.5497V39.5981H50V59.3978H77.9747C76.0145 64.9343 72.453 69.7085 67.8595 73.1858L67.8669 73.1809L83.187 86.1447C82.103 87.1298 99.4996 74.2476 99.4996 49.498C99.4996 46.1791 99.1581 42.9393 98.5369 39.8036Z" fill="#1976D2"/>
</svg>
