<svg width="23" height="24" viewBox="0 0 23 24" fill="none" xmlns="http://www.w3.org/2000/svg">
<path d="M20.7984 8.15295C20.7984 11.7168 17.7141 14.6059 13.9094 14.6059C12.0319 14.6059 10.3298 13.9023 9.08716 12.7613C7.81176 11.5901 7.02046 9.95809 7.02046 8.15295C7.02046 4.58909 10.1048 1.70001 13.9094 1.70001C17.7141 1.70001 20.7984 4.58909 20.7984 8.15295Z" fill="#FFEFE2"/>
<path d="M0.518659 21.2515C0.0500301 21.7201 0.0500301 22.4799 0.518659 22.9485C0.987289 23.4171 1.74709 23.4171 2.21572 22.9485L0.518659 21.2515ZM8.31866 13.4515L0.518659 21.2515L2.21572 22.9485L10.0157 15.1485L8.31866 13.4515Z" fill="#EA7D28"/>
<path d="M20.8 8.56617C20.8 12.3529 17.7141 15.4323 13.8953 15.4323C12.0112 15.4323 10.3063 14.6836 9.06003 13.4677C7.78084 12.2196 6.99061 10.4852 6.99061 8.56617C6.99061 4.77947 10.0766 1.7 13.8953 1.7C17.7141 1.7 20.8 4.77947 20.8 8.56617Z" stroke="#EA7D28" stroke-width="2.4"/>
</svg>
