<svg width="43" height="41" viewBox="0 0 43 41" fill="none" xmlns="http://www.w3.org/2000/svg">
<path d="M22.2325 26.7228C22.233 28.9668 21.545 31.157 20.2613 32.9977C18.9777 34.8384 17.1602 36.2409 15.0542 37.016C12.9482 37.791 10.6552 37.9013 8.48455 37.3319C6.31392 36.7625 4.37025 35.5408 2.9159 33.8318C1.46062 31.4853 0.944132 28.6762 1.4696 25.9656C1.99506 23.2549 3.52381 20.8422 5.75046 19.2095C7.97712 17.5767 10.7378 16.8441 13.481 17.1579C16.2243 17.4717 18.7482 18.8089 20.5486 20.9023C21.649 22.6442 22.2329 24.6624 22.2325 26.7228Z" fill="white"/>
<path d="M5.86743 28.7025C6.66114 31.7466 9.46867 33.7791 12.4287 33.5736C13.7352 33.4642 14.9764 32.9554 15.9837 32.1162C16.991 31.2771 17.7157 30.1482 18.0593 28.883" stroke="#4D2C19" stroke-width="1.55628" stroke-miterlimit="10" stroke-linecap="round"/>
<path d="M41.7494 26.3523C41.75 28.5964 41.062 30.7866 39.7783 32.6272C38.4947 34.4679 36.6772 35.8704 34.5712 36.6455C32.4652 37.4205 30.1722 37.5308 28.0015 36.9614C25.8309 36.392 23.8872 35.1704 22.4329 33.4614C20.9588 31.1139 20.4284 28.2952 20.9485 25.5724C21.4686 22.8497 23.0006 20.425 25.2362 18.7862C27.4719 17.1473 30.2452 16.4159 32.9983 16.7393C35.7513 17.0626 38.2798 18.4165 40.0749 20.5287C41.1726 22.2725 41.7532 24.2918 41.7494 26.3523Z" fill="white"/>
<path d="M25.3856 28.3226C26.1762 31.3698 28.9869 33.4022 31.9438 33.1968C33.2458 33.0859 34.4827 32.5791 35.4882 31.7445C36.4937 30.9098 37.2195 29.7874 37.5682 28.528" stroke="#4D2C19" stroke-width="1.55628" stroke-miterlimit="10" stroke-linecap="round"/>
<path d="M33.0775 12.1062C33.0773 14.3495 32.389 16.5388 31.1055 18.3787C29.822 20.2186 28.0051 21.6206 25.8998 22.3955C23.7946 23.1704 21.5023 23.281 19.3322 22.7123C17.1621 22.1436 15.2187 20.9231 13.7641 19.2153C12.3022 16.8677 11.7814 14.0545 12.3059 11.3392C12.8303 8.62394 14.3614 6.20709 16.5924 4.57285C18.8233 2.9386 21.5894 2.20765 24.3365 2.52644C27.0835 2.84523 29.6087 4.1902 31.4061 6.29193C32.501 8.03334 33.0805 10.0492 33.0775 12.1062Z" fill="white"/>
<path d="M32.4018 11.966C32.4009 14.5398 31.4945 17.0313 29.8412 19.004C28.1879 20.9766 25.8933 22.3046 23.3593 22.7554C20.8252 23.2062 18.2134 22.7509 15.9812 21.4695C13.7491 20.188 12.039 18.162 11.1506 15.7463C10.2622 13.3307 10.2521 10.6795 11.122 8.25715C11.992 5.8348 13.6865 3.79581 15.9088 2.49733C18.1311 1.19885 20.7394 0.7237 23.2768 1.15512C25.8142 1.58653 28.1189 2.89701 29.7872 4.85697C31.4757 6.84073 32.4026 9.36096 32.4018 11.966Z" stroke="#4D2C19" stroke-width="1.55628" stroke-miterlimit="10"/>
<path d="M15.3442 12.3395C16.1379 15.3867 18.9486 17.4192 21.9055 17.2137C23.211 17.1005 24.4503 16.5894 25.4561 15.7495C26.4619 14.9096 27.1857 13.7813 27.5299 12.5169" stroke="#4D2C19" stroke-width="1.55628" stroke-miterlimit="10" stroke-linecap="round"/>
<path d="M22.9249 28.3194C22.9248 30.8933 22.0189 33.3851 20.3661 35.3583C18.7132 37.3314 16.4188 38.6601 13.8847 39.1114C11.3506 39.5628 8.73851 39.108 6.50604 37.8269C4.27357 36.5457 2.5631 34.5199 1.6743 32.1042C0.785493 29.6886 0.775043 27.0373 1.64478 24.6147C2.51451 22.1921 4.20897 20.1529 6.43127 18.8542C8.65357 17.5555 11.262 17.0801 13.7996 17.5115C16.3371 17.9428 18.642 19.2533 20.3103 21.2134C21.9979 23.1965 22.9247 25.7154 22.9249 28.3194Z" stroke="#4D2C19" stroke-width="1.55628" stroke-miterlimit="10"/>
<path d="M42.129 27.9486C42.1282 30.5225 41.2218 33.0139 39.5685 34.9866C37.9152 36.9592 35.6206 38.2872 33.0866 38.738C30.5525 39.1888 27.9406 38.7335 25.7085 37.4521C23.4764 36.1706 21.7663 34.1446 20.8779 31.7289C19.9895 29.3133 19.9794 26.6621 20.8493 24.2398C21.7193 21.8174 23.4138 19.7784 25.6361 18.4799C27.8584 17.1815 30.4667 16.7063 33.0041 17.1377C35.5415 17.5691 37.8462 18.8796 39.5145 20.8396C41.2028 22.8235 42.1296 25.3436 42.129 27.9486Z" stroke="#4D2C19" stroke-width="1.55628" stroke-miterlimit="10"/>
</svg>
