<svg width="58" height="78" viewBox="0 0 58 78" fill="none" xmlns="http://www.w3.org/2000/svg">
<path opacity="0.5" d="M42.2253 27.9097H13.0644C12.3595 27.9097 11.7881 28.4811 11.7881 29.186V32.374C11.7881 33.0789 12.3595 33.6503 13.0644 33.6503H42.2253C42.9302 33.6503 43.5016 33.0789 43.5016 32.374V29.186C43.5016 28.4811 42.9302 27.9097 42.2253 27.9097Z" fill="#F3EBD9"/>
<path opacity="0.5" d="M41.1492 27.9097H14.4062C13.7013 27.9097 13.1299 28.4811 13.1299 29.186V32.374C13.1299 33.0789 13.7013 33.6503 14.4062 33.6503H41.1492C41.854 33.6503 42.4255 33.0789 42.4255 32.374V29.186C42.4255 28.4811 41.854 27.9097 41.1492 27.9097Z" fill="#FFE5B3"/>
<path opacity="0.5" d="M35.1671 69.1069C35.0821 69.3388 34.9758 69.5624 34.8494 69.7746C34.5263 70.3166 34.1191 70.8038 33.6431 71.2179L30.552 74.0182C29.7742 74.724 28.7616 75.1149 27.7113 75.1149C26.661 75.1149 25.6484 74.724 24.8706 74.0182C24.1059 73.3289 23.3448 72.636 22.5873 71.9395C21.7829 71.2896 21.0962 70.5063 20.557 69.6238C19.8851 68.2827 19.639 66.7683 19.8516 65.2834C20.067 63.097 20.1101 55.3422 20.0616 43.8986C20.0616 42.9131 20.0616 41.8954 20.0616 40.856C20.0616 38.6104 20.0616 36.2409 20.0131 33.7637H35.5118C35.5118 34.9233 35.5118 36.0577 35.5118 37.1671C35.5118 37.6033 35.5118 38.0341 35.5118 38.4596C35.4633 54.0767 35.4741 64.5672 35.6033 65.8273C35.7025 66.9393 35.5536 68.0595 35.1671 69.1069Z" fill="#FFE5B3"/>
<path d="M38.4681 61.9229L23.0879 69.7153" stroke="#4D2C19" stroke-width="2.69261" stroke-miterlimit="10"/>
<path d="M44.3959 28.4482H17.3567C16.0659 28.4482 15.0195 29.4946 15.0195 30.7854V31.8517C15.0195 33.1425 16.0659 34.1889 17.3567 34.1889H44.3959C45.6867 34.1889 46.7331 33.1425 46.7331 31.8517V30.7854C46.7331 29.4946 45.6867 28.4482 44.3959 28.4482Z" stroke="#4D2C19" stroke-width="2.69261" stroke-miterlimit="10"/>
<path opacity="0.5" d="M51.1606 27.829H3.29141C0.598795 15.5614 -0.747523 7.49437 3.98609 3.5147C7.34647 0.687453 13.1894 0.428981 17.293 1.85068C22.6028 3.68704 23.3298 7.70983 27.2772 7.67214C31.2246 7.63444 31.5854 3.76243 37.256 1.85068C40.6056 0.719783 45.6677 0.461314 48.9042 2.68003C54.5964 6.5897 53.1478 17.1609 51.1606 27.829Z" fill="#FFE5B3"/>
<path d="M54.3917 28.3676H6.52249C3.82987 16.1 2.48356 8.03295 7.21717 4.05327C10.5775 1.22603 16.4205 0.967555 20.5241 2.38925C25.8339 4.22561 26.5609 8.24841 30.5083 8.21071C34.4556 8.17301 34.8164 4.30101 40.4871 2.38925C43.8367 1.25836 48.8988 0.999888 52.1353 3.2186C57.8275 7.12827 56.3789 17.6994 54.3917 28.3676Z" stroke="#4D2C19" stroke-width="2.69261" stroke-miterlimit="10"/>
<path d="M26.7587 6.63818C30.8275 9.66296 35.8419 11.1371 40.9003 10.7956" stroke="#4D2C19" stroke-width="2.69261" stroke-miterlimit="10" stroke-linecap="round"/>
<path d="M38.3979 69.6452C38.3129 69.8772 38.2066 70.1007 38.0802 70.313C37.7571 70.8549 37.3499 71.3421 36.8739 71.7563L33.1043 75.1651C32.5102 75.7024 31.7377 76 30.9367 76C30.1357 76 29.3632 75.7024 28.7691 75.1651C27.7836 74.2658 26.7928 73.3718 25.8126 72.4725C25.0083 71.8225 24.3216 71.0392 23.7824 70.1568C23.1106 68.8156 22.8644 67.3013 23.0769 65.8164C23.2924 63.63 23.3354 55.8753 23.287 44.4317C23.287 43.4462 23.287 42.4283 23.287 41.389C23.287 39.1434 23.2601 36.7738 23.2385 34.2966H38.7372C38.7372 35.4562 38.7372 36.5908 38.7372 37.7001C38.7372 38.1363 38.7372 38.5671 38.7372 38.9925C38.6887 54.6097 38.6995 65.1001 38.8287 66.3603C38.9305 67.4737 38.7833 68.5957 38.3979 69.6452Z" stroke="#4D2C19" stroke-width="2.69261" stroke-miterlimit="10"/>
<path d="M38.4671 40.2258L23.0869 48.0236" stroke="#4D2C19" stroke-width="2.69261" stroke-miterlimit="10"/>
<path d="M31.8486 34L22.8486 39" stroke="#4D2C19" stroke-width="2.69261" stroke-miterlimit="10"/>
<path d="M38.4681 51.7395L23.0879 59.5319" stroke="#4D2C19" stroke-width="2.69261" stroke-miterlimit="10"/>
</svg>
