<svg width="63" height="77" viewBox="0 0 63 77" fill="none" xmlns="http://www.w3.org/2000/svg">
<path opacity="0.5" d="M61.804 14.2594L57.9107 18.9613L48.6783 21.4944L43.8586 16.8568C43.4961 16.5076 43.2346 16.0671 43.1017 15.5816C42.9688 15.0962 42.9694 14.5839 43.1035 14.0988L45.2456 6.47833L49.9689 2.60645" fill="#F3EBD9"/>
<path opacity="0.5" d="M58.5903 12.653L54.697 17.3549L45.4646 19.8879L40.6449 15.2503C40.2824 14.9012 40.0209 14.4606 39.888 13.9752C39.7551 13.4898 39.7558 12.9775 39.8898 12.4924L42.0319 4.87189L46.7552 1" fill="#FFE5B3"/>
<path opacity="0.5" d="M60.6313 65.8249C60.6313 68.5235 59.5594 71.1116 57.6512 73.0197C55.743 74.9279 53.155 75.9999 50.4564 75.9999H11.3631C9.09118 75.9981 6.88518 75.236 5.09661 73.835C3.30805 72.434 2.03983 70.4748 1.49402 68.2694C0.948208 66.064 1.15623 63.7393 2.08491 61.6658C3.01359 59.5923 4.60951 57.8893 6.6184 56.8281C6.75763 57.4922 6.90222 58.1723 7.05217 58.8631C7.16463 59.3987 7.28243 59.9342 7.40024 60.4697H55.0083C55.1047 59.9663 55.1958 59.4576 55.2868 58.9542C55.3993 58.3223 55.5117 57.6903 55.6189 57.0584C57.1451 57.957 58.4103 59.2385 59.2894 60.776C60.1685 62.3135 60.6311 64.0538 60.6313 65.8249Z" fill="#F3EBD9"/>
<path opacity="0.5" d="M61.1664 63.6134C61.1664 65.477 60.0257 67.1747 58.1835 68.3957C56.0276 69.7364 53.5298 70.4246 50.9914 70.3771H11.8981C6.2805 70.3771 1.72319 67.346 1.72319 63.6134C1.72319 61.7498 2.86386 60.0522 4.70606 58.8312C5.46874 58.331 6.29088 57.928 7.15341 57.6316C7.29265 58.0707 7.43724 58.5259 7.58718 58.9865L7.93526 60.0575H55.5434C55.6397 59.7255 55.7308 59.3828 55.8218 59.0507C55.9343 58.6277 56.0468 58.21 56.1539 57.7923C59.1528 58.9597 61.1664 61.1339 61.1664 63.6134Z" fill="#FFE5B3"/>
<path opacity="0.5" d="M53.4029 57.5833C53.3012 58.167 53.1941 58.7508 53.0869 59.3345C53.0013 59.8004 52.9156 60.2717 52.8245 60.7376H7.80304C7.69593 60.2342 7.58348 59.7361 7.47637 59.2541C7.33178 58.6115 7.19789 57.9849 7.06401 57.3691C5.08257 47.9653 4.46674 41.6569 8.45639 38.3795C11.616 35.7715 17.1105 35.5412 20.9716 36.8425C25.968 38.5348 26.6481 42.2299 30.3593 42.1977C34.0705 42.1656 34.4347 38.5937 39.7417 36.8425C42.8959 35.8036 47.6514 35.5679 50.6985 37.6136C55.4701 40.8161 54.9077 48.9025 53.4029 57.5833Z" fill="#FFE5B3"/>
<path d="M56.1501 56.5231C56.043 57.155 55.9305 57.7869 55.8181 58.4188C55.7271 58.9222 55.636 59.4309 55.5396 59.9343H7.93686C7.81905 59.3988 7.70125 58.8633 7.58879 58.3278C7.43885 57.6369 7.29426 56.9568 7.15502 56.2927C5.05577 46.1178 4.40778 39.306 8.62771 35.7608C11.9694 32.944 17.7798 32.6923 21.8605 34.1007C27.1461 35.9268 27.8637 39.9272 31.7891 39.895C35.7145 39.8629 36.1001 36.0018 41.7124 34.1007C45.0433 32.9761 50.0773 32.7244 53.2958 34.9308C58.3458 38.3956 57.746 47.1407 56.1501 56.5231Z" stroke="#4D2C19" stroke-width="2.67762" stroke-miterlimit="10"/>
<path d="M28.0671 38.3262C32.1134 41.3343 37.0993 42.8019 42.13 42.4658" stroke="#4D2C19" stroke-width="2.67762" stroke-miterlimit="10" stroke-linecap="round"/>
<path d="M61.1675 65.2895C61.1675 67.9881 60.0955 70.5762 58.1873 72.4843C56.2791 74.3925 53.6911 75.4645 50.9925 75.4645H11.8993C9.62732 75.4627 7.42131 74.7006 5.63275 73.2996C3.84418 71.8986 2.57596 69.9394 2.03015 67.734C1.48434 65.5286 1.69236 63.2039 2.62104 61.1304C3.54973 59.0569 5.14565 57.3539 7.15453 56.2927C7.29377 56.9568 7.43836 57.6369 7.5883 58.3277C7.70076 58.8633 7.81856 59.3988 7.93637 59.9343H55.5445C55.6409 59.4309 55.7319 58.9222 55.823 58.4188C55.9354 57.7869 56.0479 57.1549 56.155 56.523C57.6812 57.4216 58.9464 58.7031 59.8255 60.2406C60.7047 61.7781 61.1672 63.5184 61.1675 65.2895Z" stroke="#4D2C19" stroke-width="2.67762" stroke-miterlimit="10" stroke-linecap="round"/>
<path d="M58.0563 13.724L54.163 18.4259L44.9253 20.959L38.8952 15.17L41.4658 5.94288L46.1891 2.07104" stroke="#4D2C19" stroke-width="2.67762" stroke-miterlimit="10" stroke-linecap="round"/>
<path d="M41.465 5.94287L54.1622 18.4259" stroke="#4D2C19" stroke-width="2.67762" stroke-miterlimit="10" stroke-linecap="round"/>
<path d="M38.8894 17.8262L42.1615 21.0982" stroke="#4D2C19" stroke-width="2.67762" stroke-miterlimit="10" stroke-linecap="round"/>
</svg>
