<svg width="64" height="84" viewBox="0 0 64 84" fill="none" xmlns="http://www.w3.org/2000/svg">
<path opacity="0.5" d="M58.1455 32.3992C58.1446 38.4475 56.1886 44.3335 52.5693 49.1793C48.95 54.0252 43.8612 57.5713 38.0619 59.2888L30.0973 29.8287C30.0751 29.7428 30.0251 29.6668 29.955 29.6125C29.885 29.5582 29.7988 29.5287 29.7102 29.5287C29.6215 29.5287 29.5354 29.5582 29.4653 29.6125C29.3952 29.6668 29.3452 29.7428 29.3231 29.8287C26.7694 39.6116 24.2123 49.3793 21.6519 59.1319C16.7129 57.5697 12.3033 54.6698 8.91213 50.7539C5.52101 46.8379 3.28102 42.0591 2.44068 36.9475C1.60033 31.8359 2.19249 26.5915 4.15145 21.796C6.11041 17.0005 9.35958 12.8414 13.5385 9.78024C17.7174 6.71905 22.6627 4.8754 27.8257 4.45385C32.9887 4.03229 38.1675 5.0493 42.7877 7.39205C47.4078 9.7348 51.2886 13.3117 53.9995 17.7259C56.7105 22.1401 58.1455 27.219 58.1455 32.3992Z" fill="#FFE5B3"/>
<path opacity="0.5" d="M20.7719 19.9817L29.2527 28.4119C29.3237 28.4832 29.408 28.5397 29.5009 28.5783C29.5939 28.6169 29.6935 28.6368 29.7941 28.6368C29.8947 28.6368 29.9943 28.6169 30.0872 28.5783C30.1802 28.5397 30.2645 28.4832 30.3355 28.4119L38.7505 19.9766C39.2565 19.4706 34.5708 14.8153 29.5006 15.043C24.0357 15.2909 21.0806 19.5212 20.7719 19.9817Z" fill="#FFE5B3"/>
<path opacity="0.5" d="M39.3973 66.9699L30.6535 79.1497C30.5482 79.2959 30.4091 79.4145 30.2479 79.4951C30.0868 79.5757 29.9084 79.616 29.7283 79.6125C29.5481 79.6091 29.3715 79.5619 29.2136 79.4751C29.0557 79.3883 28.9212 79.2645 28.8217 79.1142L20.3966 66.4993C20.2452 66.271 20.1435 66.0133 20.0981 65.743C20.0528 65.4728 20.0648 65.196 20.1335 64.9307C20.6429 62.9977 21.1489 61.0648 21.6515 59.1318C24.2119 49.3792 26.769 39.6115 29.3226 29.8285C29.3448 29.7427 29.3948 29.6666 29.4649 29.6123C29.535 29.558 29.6211 29.5286 29.7097 29.5286C29.7984 29.5286 29.8845 29.558 29.9546 29.6123C30.0247 29.6666 30.0747 29.7427 30.0968 29.8285L38.0615 59.2735C38.608 61.2975 39.1545 63.3216 39.6959 65.3102C39.7751 65.5914 39.7894 65.8869 39.7377 66.1744C39.686 66.462 39.5696 66.734 39.3973 66.9699Z" fill="#FFCC66"/>
<path opacity="0.5" d="M40.2681 66.8082L30.8056 80.005C30.6908 80.1628 30.5397 80.2905 30.365 80.3775C30.1903 80.4645 29.9972 80.5081 29.8021 80.5046C29.607 80.5011 29.4156 80.4507 29.2442 80.3575C29.0727 80.2644 28.9262 80.1313 28.817 79.9696L19.7088 66.3072C19.5444 66.0607 19.4341 65.7822 19.3853 65.49C19.3365 65.1978 19.3501 64.8986 19.4255 64.6121C19.9719 62.5172 20.5235 60.4223 21.0649 58.3274C23.8345 47.7618 26.6041 37.1811 29.3736 26.5852C29.3987 26.4929 29.4533 26.4115 29.5293 26.3534C29.6052 26.2954 29.6981 26.2639 29.7936 26.2639C29.8892 26.2639 29.9821 26.2954 30.058 26.3534C30.1339 26.4115 30.1886 26.4929 30.2136 26.5852C33.0911 37.2216 35.967 47.8563 38.8411 58.4893C39.4281 60.6652 40.0252 62.8511 40.6122 65.0321C40.6908 65.335 40.7007 65.6517 40.6412 65.9591C40.5816 66.2664 40.4542 66.5565 40.2681 66.8082Z" fill="#FFE5B3"/>
<path d="M22.5577 18.5092L31.3926 27.2986C31.5433 27.4482 31.7471 27.5321 31.9594 27.5321C32.1717 27.5321 32.3754 27.4482 32.5261 27.2986L41.3105 18.5041C41.8165 17.9981 36.9436 13.1151 31.6507 13.3529C25.9429 13.6363 22.8562 18.0285 22.5577 18.5092Z" stroke="#4D2C19" stroke-width="3.04113" stroke-miterlimit="10" stroke-linecap="round"/>
<path d="M41.9988 68.559L32.6781 81.5079C32.566 81.6628 32.4183 81.7884 32.2473 81.874C32.0764 81.9597 31.8873 82.0028 31.6961 81.9999C31.5049 81.9969 31.3173 81.9479 31.1491 81.8569C30.9809 81.766 30.8371 81.6358 30.7299 81.4775C27.7613 77.001 24.7843 72.5278 21.7988 68.058C21.6369 67.8162 21.528 67.5428 21.4792 67.2559C21.4303 66.969 21.4427 66.675 21.5155 66.3932C22.0586 64.3388 22.5967 62.2844 23.1297 60.23C25.852 49.8534 28.571 39.4733 31.2866 29.0899C31.3095 28.9979 31.3626 28.9163 31.4373 28.8579C31.512 28.7995 31.6041 28.7678 31.699 28.7678C31.7938 28.7678 31.8859 28.7995 31.9606 28.8579C32.0353 28.9163 32.0884 28.9979 32.1114 29.0899C34.9349 39.5239 37.7568 49.9596 40.5769 60.397C41.1538 62.5324 41.7357 64.6779 42.3176 66.8132C42.3976 67.1096 42.4105 67.4201 42.3554 67.7221C42.3002 68.0241 42.1784 68.31 41.9988 68.559Z" stroke="#4D2C19" stroke-width="3.04113" stroke-miterlimit="10" stroke-linecap="round"/>
<path d="M61.9307 31.8072C61.9293 38.2379 59.8494 44.4958 56.0013 49.648C52.1531 54.8002 46.7428 58.5706 40.577 60.397C37.7534 49.9596 34.9316 39.5239 32.1114 29.0899C32.0884 28.9979 32.0354 28.9162 31.9606 28.8579C31.8859 28.7995 31.7938 28.7678 31.699 28.7678C31.6042 28.7678 31.5121 28.7995 31.4374 28.8579C31.3626 28.9162 31.3096 28.9979 31.2866 29.0899C28.5879 39.4666 25.8689 49.8466 23.1297 60.23C17.879 58.5688 13.1912 55.4854 9.58628 51.3221C5.98134 47.1587 3.60021 42.0781 2.70704 36.6438C1.81387 31.2095 2.44359 25.634 4.52632 20.5358C6.60906 15.4376 10.0634 11.0161 14.5061 7.76167C18.9489 4.50724 24.2063 2.54718 29.6952 2.09892C35.1841 1.65066 40.6899 2.73173 45.6018 5.2222C50.5137 7.71266 54.6397 11.5152 57.522 16.2079C60.4043 20.9006 61.9303 26.3 61.9307 31.8072Z" stroke="#4D2C19" stroke-width="3.04113" stroke-miterlimit="10" stroke-linecap="round"/>
</svg>
