<svg width="80" height="84" viewBox="0 0 80 84" fill="none" xmlns="http://www.w3.org/2000/svg">
<g opacity="0.5">
<path d="M39.9422 19.1682L41.9132 23.1947C41.9874 23.344 42.0965 23.4732 42.2311 23.5715C42.3658 23.6698 42.5221 23.7343 42.6869 23.7594L47.1315 24.4032C47.3204 24.4319 47.4975 24.5126 47.6431 24.6364C47.7886 24.7601 47.8968 24.922 47.9555 25.1038C48.0141 25.2857 48.0209 25.4802 47.9751 25.6657C47.9294 25.8512 47.8328 26.0202 47.6962 26.1539L44.4828 29.2825C44.3639 29.3989 44.2751 29.5425 44.2239 29.7009C44.1728 29.8593 44.1608 30.0277 44.1892 30.1917L44.9459 34.6192C44.9787 34.8075 44.958 35.0013 44.8861 35.1785C44.8143 35.3556 44.6942 35.5091 44.5395 35.6215C44.3848 35.7338 44.2017 35.8005 44.011 35.814C43.8203 35.8275 43.6296 35.7872 43.4606 35.6978L39.5074 33.6083C39.3554 33.5283 39.1856 33.488 39.0139 33.4909C38.8421 33.4939 38.6739 33.5401 38.5247 33.6252L34.5715 35.7147C34.4025 35.8042 34.2118 35.8444 34.0211 35.831C33.8304 35.8175 33.6473 35.7508 33.4926 35.6384C33.3379 35.5261 33.2178 35.3726 33.146 35.1954C33.0741 35.0182 33.0534 34.8245 33.0862 34.6361L33.843 30.2086C33.8713 30.0446 33.8593 29.8762 33.8082 29.7178C33.757 29.5595 33.6682 29.4159 33.5493 29.2994L30.3359 26.1708C30.1993 26.0372 30.1028 25.8681 30.057 25.6827C30.0112 25.4972 30.018 25.3026 30.0766 25.1208C30.1353 24.939 30.2435 24.7771 30.389 24.6533C30.5346 24.5296 30.7117 24.4488 30.9006 24.4202L35.3395 23.7764C35.5047 23.7521 35.6614 23.688 35.7962 23.5896C35.931 23.4912 36.0398 23.3615 36.1132 23.2116L38.1012 19.1851C38.1847 19.013 38.3146 18.8675 38.4763 18.7652C38.638 18.6629 38.8251 18.6078 39.0164 18.606C39.2078 18.6042 39.3958 18.6559 39.5594 18.7552C39.723 18.8546 39.8556 18.9976 39.9422 19.1682Z" fill="#FFCC66"/>
<path d="M54.407 71.8345H23.679C21.9199 71.8345 20.4938 73.2605 20.4938 75.0195V76.053C20.4938 77.8121 21.9199 79.2381 23.679 79.2381H54.407C56.1661 79.2381 57.5922 77.8121 57.5922 76.053V75.0195C57.5922 73.2605 56.1661 71.8345 54.407 71.8345Z" fill="#FFE5B3"/>
<path d="M21.7847 2H56.2739C57.0917 2 57.876 2.32486 58.4543 2.90311C59.0326 3.48137 59.3575 4.26565 59.3575 5.08342V33.2973C59.3575 38.4136 57.3249 43.3204 53.707 46.9382C50.0891 50.556 45.1821 52.5885 40.0656 52.5885H38.4335C33.2017 52.5885 28.1841 50.5102 24.4846 46.8109C20.7852 43.1115 18.7068 38.0941 18.7068 32.8625V5.11166C18.7031 4.70484 18.7799 4.30131 18.9329 3.92432C19.0858 3.54732 19.3118 3.20432 19.5979 2.91508C19.884 2.62583 20.2246 2.39606 20.5999 2.23901C20.9752 2.08196 21.3779 2.00073 21.7847 2Z" fill="#FFE5B3"/>
</g>
<path opacity="0.5" d="M39.9548 20.1736L41.9992 24.3074C42.0765 24.4576 42.1886 24.5873 42.3261 24.6855C42.4636 24.7837 42.6226 24.8477 42.7898 24.8721L47.3587 25.5328C47.5509 25.565 47.7304 25.6498 47.8775 25.7777C48.0245 25.9056 48.1333 26.0717 48.1917 26.2576C48.2502 26.4435 48.2561 26.642 48.2087 26.831C48.1614 27.02 48.0626 27.1923 47.9234 27.3287L44.614 30.5533C44.4918 30.6724 44.4006 30.8195 44.3485 30.982C44.2963 31.1444 44.2847 31.3171 44.3147 31.4851L45.094 36.0368C45.1308 36.232 45.1117 36.4336 45.039 36.6184C44.9664 36.8033 44.8431 36.9639 44.6833 37.0819C44.5234 37.1998 44.3336 37.2703 44.1356 37.2852C43.9375 37.3001 43.7392 37.2589 43.5635 37.1663L39.4804 35.0203C39.3292 34.9397 39.1604 34.8976 38.9891 34.8976C38.8177 34.8976 38.649 34.9397 38.4977 35.0203L34.4146 37.1663C34.2389 37.2589 34.0407 37.3001 33.8426 37.2852C33.6445 37.2703 33.4547 37.1998 33.2949 37.0819C33.1351 36.9639 33.0118 36.8033 32.9391 36.6184C32.8664 36.4336 32.8474 36.232 32.8841 36.0368L33.6635 31.4851C33.6913 31.3167 33.6781 31.1441 33.625 30.9819C33.5719 30.8197 33.4805 30.6727 33.3585 30.5533L30.0547 27.3287C29.9135 27.1932 29.8129 27.0209 29.7643 26.8313C29.7157 26.6417 29.7211 26.4422 29.7798 26.2555C29.8385 26.0688 29.9483 25.9022 30.0966 25.7745C30.245 25.6468 30.4261 25.5631 30.6195 25.5328L35.1883 24.8721C35.3565 24.8485 35.5167 24.785 35.6552 24.6867C35.7938 24.5884 35.9067 24.4583 35.9846 24.3074L38.0234 20.1736C38.1061 19.9865 38.2415 19.8275 38.4129 19.7159C38.5844 19.6043 38.7845 19.5449 38.9891 19.5449C39.1936 19.5449 39.3938 19.6043 39.5652 19.7159C39.7367 19.8275 39.872 19.9865 39.9548 20.1736Z" fill="#FFCC66"/>
<path d="M41.0006 20.174L43.0393 24.3078C43.1166 24.458 43.2287 24.5877 43.3662 24.6859C43.5038 24.7841 43.6627 24.8481 43.83 24.8725L48.4044 25.5502C48.5966 25.5824 48.7762 25.6671 48.9232 25.795C49.0703 25.9229 49.179 26.089 49.2375 26.2749C49.2959 26.4608 49.3018 26.6593 49.2545 26.8483C49.2071 27.0374 49.1084 27.2096 48.9692 27.346L45.6597 30.5706C45.5376 30.6897 45.4464 30.8369 45.3942 30.9993C45.342 31.1617 45.3304 31.3345 45.3604 31.5024L46.1398 36.0541C46.1765 36.2493 46.1575 36.4509 46.0848 36.6358C46.0122 36.8206 45.8888 36.9812 45.729 37.0992C45.5692 37.2171 45.3794 37.2876 45.1813 37.3025C44.9833 37.3175 44.785 37.2762 44.6093 37.1836L40.5262 35.0376C40.3749 34.957 40.2062 34.9149 40.0348 34.9149C39.8635 34.9149 39.6947 34.957 39.5435 35.0376L35.4604 37.1836C35.2847 37.2762 35.0864 37.3175 34.8884 37.3025C34.6903 37.2876 34.5005 37.2171 34.3407 37.0992C34.1808 36.9812 34.0575 36.8206 33.9849 36.6358C33.9122 36.4509 33.8932 36.2493 33.9299 36.0541L34.7093 31.5024C34.7371 31.334 34.7239 31.1614 34.6708 30.9992C34.6177 30.837 34.5263 30.69 34.4043 30.5706L31.1231 27.346C30.9818 27.2105 30.8812 27.0382 30.8326 26.8486C30.7841 26.659 30.7894 26.4596 30.8482 26.2728C30.9069 26.0861 31.0166 25.9195 31.165 25.7918C31.3134 25.6641 31.4945 25.5804 31.6879 25.5502L36.2623 24.8894C36.4305 24.8659 36.5907 24.8023 36.7292 24.704C36.8678 24.6058 36.9807 24.4757 37.0586 24.3247L39.0861 20.174C39.171 19.9917 39.3062 19.8375 39.4758 19.7294C39.6453 19.6214 39.8422 19.564 40.0433 19.564C40.2444 19.564 40.4413 19.6214 40.6109 19.7294C40.7804 19.8375 40.9156 19.9917 41.0006 20.174Z" stroke="#4D2C19" stroke-width="3.35455" stroke-miterlimit="10" stroke-linecap="round"/>
<path d="M55.8729 74.3875H24.2921C22.4831 74.3875 21.0166 75.8539 21.0166 77.6629V78.7246C21.0166 80.5335 22.4831 82 24.2921 82H55.8729C57.6819 82 59.1484 80.5335 59.1484 78.7246V77.6629C59.1484 75.8539 57.6819 74.3875 55.8729 74.3875Z" stroke="#4D2C19" stroke-width="3.35455" stroke-miterlimit="10" stroke-linecap="round"/>
<path d="M22.3528 2.5647H57.8077C58.648 2.5647 59.4539 2.89848 60.048 3.49262C60.6422 4.08676 60.976 4.89259 60.976 5.73283V34.6922C60.9745 39.9513 58.8842 44.9945 55.1647 48.7128C51.4453 52.431 46.4013 54.5198 41.142 54.5198H39.4477C34.073 54.5153 28.9199 52.3775 25.1205 48.5761C21.321 44.7747 19.186 39.6205 19.1846 34.246V5.71589C19.189 4.87859 19.5248 4.0771 20.1185 3.48662C20.7122 2.89614 21.5155 2.56469 22.3528 2.5647Z" stroke="#4D2C19" stroke-width="3.35455" stroke-miterlimit="10" stroke-linecap="round"/>
<path d="M40.0791 56.0901V72.9586" stroke="#4D2C19" stroke-width="2.8237" stroke-miterlimit="10" stroke-linecap="round"/>
<path d="M62.8695 12.3237L74.9325 13.2951C77.0842 13.4645 78.5808 15.8928 78.112 18.4736C76.5025 27.3116 71.7078 44.9199 59.2607 42.7852" stroke="#4D2C19" stroke-width="3.35455" stroke-miterlimit="10" stroke-linecap="round"/>
<path d="M17.1268 12.3237L5.06371 13.2951C2.91202 13.4645 1.41543 15.8928 1.88982 18.4736C3.51065 27.3116 8.28843 44.9199 20.7411 42.7852" stroke="#4D2C19" stroke-width="3.35455" stroke-miterlimit="10" stroke-linecap="round"/>
</svg>
