<svg width="136" height="67" viewBox="0 0 136 67" fill="none" xmlns="http://www.w3.org/2000/svg">
<path opacity="0.5" d="M120.434 31.9061L133.302 31.1885" stroke="#FFCC66" stroke-width="5" stroke-miterlimit="10" stroke-linecap="round"/>
<path opacity="0.5" d="M117.513 40.0996L129.114 45.7154" stroke="#FFCC66" stroke-width="5" stroke-miterlimit="10" stroke-linecap="round"/>
<path opacity="0.5" d="M116.624 24.0813L127.528 17.2114" stroke="#FFCC66" stroke-width="5" stroke-miterlimit="10" stroke-linecap="round"/>
<path d="M119.812 33.3343L132.681 32.6167" stroke="#4D2C19" stroke-width="3" stroke-miterlimit="10" stroke-linecap="round"/>
<path d="M116.891 41.5281L128.492 47.1508" stroke="#4D2C19" stroke-width="3" stroke-miterlimit="10" stroke-linecap="round"/>
<path d="M116.002 25.5168L126.907 18.6399" stroke="#4D2C19" stroke-width="3" stroke-miterlimit="10" stroke-linecap="round"/>
<g opacity="0.5">
<path d="M72.6219 34.658H83.6653C86.2572 26.9938 93.7123 0.72654 94.9177 0.517517C99.1609 -0.179227 109.257 20.0264 106.379 40.1274C105.961 43.0677 103.313 61.3085 93.141 63.8167C90.5074 64.426 87.7425 64.0674 85.3514 62.8065C85.3514 62.8065 72.81 61.413 70.7198 24.2974L4.87741 30.2755" fill="#FFCC66"/>
<path d="M93.8387 0.726318L6.91984 25.8718C6.91984 25.8718 1.39466 32.895 6.91984 40.6219L87.4705 63.6702" fill="#FFE5B3"/>
<path d="M68.0024 58.1035C68.0024 58.1035 59.6415 47.297 60.1919 34.0171L68.0024 58.1035Z" fill="#FFCC66"/>
<path d="M53.812 52.7733C53.812 52.7733 51.025 45.8059 51.025 40.2319L53.812 52.7733Z" fill="#FFCC66"/>
<path opacity="0.5" d="M51.3723 14.8147L70.1844 9.24072C69.0185 12.2646 67.8573 15.2838 66.7007 18.2984L45.1016 21.0854L51.3723 14.8147Z" fill="#FFCC66"/>
</g>
<path opacity="0.5" d="M68.4421 36.0515H79.4855C82.0774 28.3874 89.5325 2.1201 90.7379 1.91107C94.9811 1.21433 105.077 21.4199 102.199 41.521C101.781 44.4613 99.1337 62.702 88.9612 65.2103C86.3276 65.8195 83.5627 65.4609 81.1716 64.2C81.1716 64.2 68.6302 62.8065 66.54 25.691L0.697632 31.669" fill="#FFE5B3"/>
<path d="M72.2734 35.7173H83.3168C85.9087 28.0531 93.3638 1.77193 94.5692 1.57684C98.8124 0.880099 108.908 21.0857 106.031 41.1868C105.613 44.127 102.965 62.3678 92.7925 64.8761C90.1572 65.481 87.3922 65.1175 85.0029 63.8519C85.0029 63.8519 72.4615 62.4584 70.3712 25.3428L4.5289 31.3209" stroke="#4D2C19" stroke-width="3" stroke-miterlimit="10" stroke-linecap="round"/>
<path d="M93.4918 1.77197L6.57298 26.9175C6.57298 26.9175 1.07567 33.9616 6.57298 41.6676L87.0957 64.7159" stroke="#4D2C19" stroke-width="3" stroke-miterlimit="10" stroke-linecap="round"/>
<path d="M67.6559 59.1485C67.6559 59.1485 59.295 48.342 59.8454 35.062" stroke="#4D2C19" stroke-width="3" stroke-miterlimit="10" stroke-linecap="round"/>
<path d="M53.4615 53.8322C53.4615 53.8322 50.6745 46.8647 50.6745 41.2908" stroke="#4D2C19" stroke-width="3" stroke-miterlimit="10" stroke-linecap="round"/>
<path d="M81.5913 5.21362L76.4563 18.9952" stroke="#4D2C19" stroke-width="3" stroke-miterlimit="10" stroke-linecap="round"/>
<path d="M51.023 14.8459L69.8351 9.27197C68.6692 12.2958 67.508 15.3151 66.3514 18.3297L44.7523 21.1166L51.023 14.8459Z" fill="#4D2C19"/>
</svg>
