<svg width="53" height="90" viewBox="0 0 53 90" fill="none" xmlns="http://www.w3.org/2000/svg">
<path opacity="0.5" d="M21.2418 2.02393H12.3954C11.4115 2.02393 10.6138 2.82155 10.6138 3.80548V16.7781C10.6138 17.7621 11.4115 18.5597 12.3954 18.5597H21.2418C22.2257 18.5597 23.0234 17.7621 23.0234 16.7781V3.80548C23.0234 2.82155 22.2257 2.02393 21.2418 2.02393Z" fill="#FFF2D9"/>
<path d="M18.6813 1H9.83484C8.85091 1 8.05328 1.79762 8.05328 2.78156V15.7542C8.05328 16.7381 8.85091 17.5358 9.83484 17.5358H18.6813C19.6652 17.5358 20.4628 16.7381 20.4628 15.7542V2.78156C20.4628 1.79762 19.6652 1 18.6813 1Z" fill="#FFF2D9"/>
<path d="M48.39 53.4435C48.0418 54.7183 47.366 57.191 46.6954 59.6534C46.5067 60.2977 46.267 60.926 45.9787 61.5323C44.6834 64.3633 44.4736 67.353 44.3661 70.3786C44.2176 74.5612 43.6647 78.6977 42.0265 82.6653C41.6857 83.4879 41.2529 84.2694 40.7364 84.9946C38.4889 88.1636 34.0811 88.2967 31.7824 85.1431C30.8641 83.7563 30.1552 82.2417 29.6784 80.6482C28.9514 78.5186 28.4804 76.3069 27.8405 74.1516C27.6168 73.4405 27.2964 72.7635 26.8883 72.1397C25.6289 70.1892 23.0282 69.9742 21.6613 71.8581C20.7437 73.2445 20.0122 74.7454 19.4855 76.3223C18.4975 78.923 17.6783 81.5851 16.7261 84.2011C16.4718 84.7932 16.1148 85.3357 15.6715 85.8035C15.2472 86.3235 14.7152 86.7454 14.1121 87.04C13.5091 87.3347 12.8493 87.495 12.1783 87.5101C11.5072 87.5252 10.8409 87.3946 10.2252 87.1274C9.60953 86.8602 9.05911 86.4627 8.61184 85.9622C6.99212 84.1901 5.92461 81.9839 5.54017 79.6141C4.86742 76.1766 4.39222 72.7033 4.11694 69.2114C3.96177 66.6906 3.4605 64.2031 2.6272 61.8189C1.60331 59.0032 0.57942 56.1466 0.164745 53.2285C-0.5315 48.1961 1.97191 44.3207 6.36951 41.5306C8.85757 39.9487 11.6681 40.1432 14.4377 40.8753C15.8558 41.2439 17.2637 41.6381 18.6459 42.1039C22.1248 43.3089 25.9043 43.3305 29.3968 42.1654C31.1374 41.6125 32.919 41.1415 34.7057 40.7217C36.2708 40.3233 37.9095 40.3127 39.4797 40.6909C41.0498 41.0692 42.5039 41.8249 43.7159 42.8924C46.7927 45.4418 48.4053 48.5801 48.39 53.4435Z" fill="#FFF2D9"/>
<path d="M22.3879 39.6211C23.4433 39.8597 24.4722 40.2027 25.4596 40.645C26.6302 41.2006 27.7504 41.8567 28.8077 42.6057C30.103 43.389 32.2531 44.0699 35.9289 43.3992" stroke="#4D2C19" stroke-width="2.55972" stroke-miterlimit="10" stroke-linecap="round"/>
<path d="M50.9505 51.3704C50.6024 52.7424 49.9266 55.3994 49.2559 58.0257C49.0697 58.7256 48.8301 59.4102 48.5392 60.0735C47.244 63.1451 47.0341 66.3346 46.9266 69.5957C46.7782 74.0905 46.2252 78.5445 44.587 82.7834C44.2498 83.6625 43.8172 84.502 43.2969 85.2867C41.0495 88.7014 36.6416 88.8396 34.343 85.4506C33.4181 83.9447 32.7098 82.316 32.2389 80.6127C31.5119 78.3192 31.041 75.9438 30.401 73.6196C30.1794 72.8609 29.8593 72.1345 29.4488 71.4591C28.1894 69.3601 25.5887 69.1298 24.2218 71.1571C23.2997 72.661 22.5688 74.2742 22.0461 75.9591C21.058 78.7594 20.2389 81.6212 19.2867 84.4318C19.0369 85.0632 18.6802 85.6469 18.2321 86.1571C16.3225 88.5427 13.1894 88.6246 11.1724 86.3311C9.53366 84.3844 8.46997 82.0195 8.10071 79.5018C7.4276 75.7994 6.95251 72.0637 6.67749 68.3107C6.52435 65.6059 6.02366 62.932 5.18775 60.3551C4.16386 57.3244 3.13997 54.2475 2.72529 51.1093C2.02905 45.6981 4.53245 41.5258 8.93006 38.5258C11.4181 36.8261 14.2287 37.036 16.9983 37.8193C18.4164 38.2186 19.8242 38.6384 21.2065 39.1401C24.6684 40.4387 28.4796 40.4622 31.9573 39.2066C33.6979 38.6128 35.4795 38.1008 37.2662 37.6708C40.6707 36.821 43.6604 37.6708 46.2765 40.0053C49.3532 42.7595 50.9659 46.1281 50.9505 51.3704Z" stroke="#4D2C19" stroke-width="2.55972" stroke-miterlimit="10" stroke-linecap="round"/>
<path d="M12.2232 19.5698L16.6464 19.6773" stroke="#4D2C19" stroke-width="2.55972" stroke-miterlimit="10" stroke-linecap="round"/>
<path d="M12.2359 2H15.8195C17.0415 2 18.2134 2.48542 19.0775 3.34949C19.9415 4.21357 20.427 5.38551 20.427 6.6075V16.7593C20.427 17.2318 20.2393 17.685 19.9052 18.0191C19.5711 18.3532 19.1179 18.5409 18.6454 18.5409H9.83484C9.36234 18.5409 8.90918 18.3532 8.57507 18.0191C8.24096 17.685 8.05328 17.2318 8.05328 16.7593V6.20306C8.05461 5.09229 8.49504 4.02709 9.27856 3.23974C10.0621 2.45239 11.1251 2.00676 12.2359 2Z" stroke="#4D2C19" stroke-width="2.04778" stroke-miterlimit="10" stroke-linecap="round"/>
<path d="M14.4517 19.0476V34.3676" stroke="#4D2C19" stroke-width="2.55972" stroke-miterlimit="10" stroke-linecap="round"/>
</svg>
