<svg width="23" height="23" viewBox="0 0 23 23" fill="none" xmlns="http://www.w3.org/2000/svg">
<path d="M20.7984 7.65288C20.7984 11.2167 17.7141 14.1058 13.9094 14.1058C12.0319 14.1058 10.3298 13.4022 9.08716 12.2612C7.81176 11.09 7.02046 9.45802 7.02046 7.65288C7.02046 4.08903 10.1048 1.19995 13.9094 1.19995C17.7141 1.19995 20.7984 4.08903 20.7984 7.65288Z" fill="#FFEFE2"/>
<path d="M0.518659 20.7515C0.0500301 21.2201 0.0500301 21.9799 0.518659 22.4486C0.987289 22.9172 1.74709 22.9172 2.21572 22.4486L0.518659 20.7515ZM8.31866 12.9515L0.518659 20.7515L2.21572 22.4486L10.0157 14.6486L8.31866 12.9515Z" fill="#EA7D28"/>
<path d="M20.8 8.06617C20.8 11.8529 17.7141 14.9323 13.8953 14.9323C12.0112 14.9323 10.3063 14.1836 9.06003 12.9677C7.78084 11.7196 6.99061 9.98524 6.99061 8.06617C6.99061 4.27947 10.0766 1.2 13.8953 1.2C17.7141 1.2 20.8 4.27947 20.8 8.06617Z" stroke="#EA7D28" stroke-width="2.4"/>
</svg>
