<svg width="27" height="16" viewBox="0 0 27 16" fill="none" xmlns="http://www.w3.org/2000/svg">
<path d="M13.2547 15.0453C12.7504 15.0512 12.2639 14.8637 11.8998 14.5231L0.861281 3.72444C0.681074 3.55022 0.537792 3.34307 0.439614 3.1148C0.341436 2.88654 0.290286 2.64163 0.289084 2.39407C0.287882 2.14652 0.336652 1.90115 0.432608 1.67199C0.528565 1.44283 0.669829 1.23436 0.848336 1.05848C1.02684 0.882597 1.2391 0.742756 1.47298 0.646936C1.70686 0.551116 1.95779 0.501194 2.21144 0.500021C2.46509 0.498848 2.71649 0.546446 2.95129 0.640098C3.1861 0.733751 3.3997 0.871622 3.5799 1.04584L13.2547 10.522L22.9296 1.04584C23.2956 0.721616 23.7755 0.547276 24.2696 0.558955C24.7638 0.570634 25.2344 0.767437 25.5839 1.10857C25.9335 1.44971 26.1351 1.90903 26.1471 2.39132C26.159 2.87362 25.9804 3.34193 25.6482 3.69917L14.6097 14.5231C14.2456 14.8637 13.7591 15.0512 13.2547 15.0453Z" fill="#EA7D28"/>
</svg>
