<svg width="22" height="13" viewBox="0 0 22 13" fill="none" xmlns="http://www.w3.org/2000/svg">
<path d="M10.8291 12.414C10.4191 12.4188 10.0236 12.2664 9.72761 11.9895L0.75423 3.21105C0.607736 3.06943 0.49126 2.90102 0.411449 2.71546C0.331638 2.5299 0.290057 2.33082 0.28908 2.12957C0.288103 1.92833 0.327749 1.72887 0.405754 1.54258C0.483759 1.35629 0.598594 1.18681 0.743706 1.04384C0.888818 0.900864 1.06136 0.787185 1.25149 0.709291C1.44162 0.631397 1.6456 0.590815 1.8518 0.589861C2.058 0.588907 2.26237 0.627601 2.45324 0.703732C2.64411 0.779864 2.81776 0.891942 2.96425 1.03357L10.8291 8.73693L18.694 1.03357C18.9915 0.77 19.3816 0.628275 19.7833 0.637769C20.185 0.647263 20.5676 0.807248 20.8517 1.08456C21.1359 1.36188 21.2998 1.73527 21.3095 2.12734C21.3193 2.51941 21.174 2.9001 20.904 3.19051L11.9306 11.9895C11.6346 12.2664 11.2391 12.4188 10.8291 12.414Z" fill="#F6841F"/>
</svg>
